<mxfile host="Electron" agent="Mozilla/5.0 (Windows NT 10.0; Win64; x64) AppleWebKit/537.36 (KHTML, like Gecko) draw.io/24.7.8 Chrome/128.0.6613.36 Electron/32.0.1 Safari/537.36" version="24.7.8">
  <diagram name="Страница — 1" id="P5WR6w7aT3Yd_RcJU_hF">
    <mxGraphModel dx="1036" dy="614" grid="1" gridSize="10" guides="1" tooltips="1" connect="1" arrows="1" fold="1" page="1" pageScale="1" pageWidth="827" pageHeight="1169" math="0" shadow="0">
      <root>
        <mxCell id="0" />
        <mxCell id="1" parent="0" />
        <mxCell id="4nF56dzLipQzrhasN0Lw-1" value="Неисправность&lt;div&gt;оборудования&lt;/div&gt;" style="html=1;strokeWidth=2;shape=manualInput;whiteSpace=wrap;rounded=1;size=26;arcSize=11;" vertex="1" parent="1">
          <mxGeometry x="130" y="180" width="100" height="60" as="geometry" />
        </mxCell>
        <mxCell id="4nF56dzLipQzrhasN0Lw-2" value="" style="endArrow=classic;html=1;rounded=0;" edge="1" parent="1">
          <mxGeometry width="50" height="50" relative="1" as="geometry">
            <mxPoint x="230" y="209.5" as="sourcePoint" />
            <mxPoint x="310" y="209.5" as="targetPoint" />
          </mxGeometry>
        </mxCell>
        <mxCell id="4nF56dzLipQzrhasN0Lw-3" value="Заявка на ремонт" style="shape=process;whiteSpace=wrap;html=1;backgroundOutline=1;" vertex="1" parent="1">
          <mxGeometry x="310" y="180" width="120" height="60" as="geometry" />
        </mxCell>
        <mxCell id="4nF56dzLipQzrhasN0Lw-4" value="Регистрация заявки" style="shape=process;whiteSpace=wrap;html=1;backgroundOutline=1;" vertex="1" parent="1">
          <mxGeometry x="310" y="270" width="120" height="60" as="geometry" />
        </mxCell>
        <mxCell id="4nF56dzLipQzrhasN0Lw-6" value="Система учета заявок" style="strokeWidth=2;html=1;shape=mxgraph.flowchart.database;whiteSpace=wrap;" vertex="1" parent="1">
          <mxGeometry x="510" y="270" width="60" height="60" as="geometry" />
        </mxCell>
        <mxCell id="4nF56dzLipQzrhasN0Lw-7" value="" style="endArrow=classic;html=1;rounded=0;" edge="1" parent="1">
          <mxGeometry width="50" height="50" relative="1" as="geometry">
            <mxPoint x="430" y="299.5" as="sourcePoint" />
            <mxPoint x="510" y="299.5" as="targetPoint" />
          </mxGeometry>
        </mxCell>
        <mxCell id="4nF56dzLipQzrhasN0Lw-8" value="Обработка заявки" style="shape=process;whiteSpace=wrap;html=1;backgroundOutline=1;" vertex="1" parent="1">
          <mxGeometry x="310" y="360" width="120" height="60" as="geometry" />
        </mxCell>
        <mxCell id="4nF56dzLipQzrhasN0Lw-10" value="" style="endArrow=classic;html=1;rounded=0;entryX=0.5;entryY=0;entryDx=0;entryDy=0;exitX=0.5;exitY=1;exitDx=0;exitDy=0;" edge="1" parent="1" source="4nF56dzLipQzrhasN0Lw-3" target="4nF56dzLipQzrhasN0Lw-4">
          <mxGeometry width="50" height="50" relative="1" as="geometry">
            <mxPoint x="390" y="240" as="sourcePoint" />
            <mxPoint x="440" y="190" as="targetPoint" />
          </mxGeometry>
        </mxCell>
        <mxCell id="4nF56dzLipQzrhasN0Lw-12" value="" style="endArrow=classic;html=1;rounded=0;exitX=0.5;exitY=1;exitDx=0;exitDy=0;entryX=0.5;entryY=0;entryDx=0;entryDy=0;" edge="1" parent="1" source="4nF56dzLipQzrhasN0Lw-4" target="4nF56dzLipQzrhasN0Lw-8">
          <mxGeometry width="50" height="50" relative="1" as="geometry">
            <mxPoint x="390" y="240" as="sourcePoint" />
            <mxPoint x="440" y="190" as="targetPoint" />
          </mxGeometry>
        </mxCell>
        <mxCell id="4nF56dzLipQzrhasN0Lw-13" value="Данные об исполнителе" style="html=1;strokeWidth=2;shape=manualInput;whiteSpace=wrap;rounded=1;size=26;arcSize=11;" vertex="1" parent="1">
          <mxGeometry x="130" y="360" width="100" height="60" as="geometry" />
        </mxCell>
        <mxCell id="4nF56dzLipQzrhasN0Lw-14" value="" style="endArrow=classic;html=1;rounded=0;" edge="1" parent="1">
          <mxGeometry width="50" height="50" relative="1" as="geometry">
            <mxPoint x="230" y="389.5" as="sourcePoint" />
            <mxPoint x="310" y="389.5" as="targetPoint" />
          </mxGeometry>
        </mxCell>
        <mxCell id="4nF56dzLipQzrhasN0Lw-15" value="Нужна ли доп. информация" style="strokeWidth=2;html=1;shape=mxgraph.flowchart.decision;whiteSpace=wrap;" vertex="1" parent="1">
          <mxGeometry x="320" y="440" width="100" height="100" as="geometry" />
        </mxCell>
        <mxCell id="4nF56dzLipQzrhasN0Lw-16" value="Уточнение деталей" style="shape=process;whiteSpace=wrap;html=1;backgroundOutline=1;" vertex="1" parent="1">
          <mxGeometry x="470" y="510" width="120" height="60" as="geometry" />
        </mxCell>
        <mxCell id="4nF56dzLipQzrhasN0Lw-17" value="" style="endArrow=classic;html=1;rounded=0;exitX=1;exitY=0.5;exitDx=0;exitDy=0;exitPerimeter=0;entryX=0.5;entryY=0;entryDx=0;entryDy=0;" edge="1" parent="1" source="4nF56dzLipQzrhasN0Lw-15" target="4nF56dzLipQzrhasN0Lw-16">
          <mxGeometry width="50" height="50" relative="1" as="geometry">
            <mxPoint x="390" y="350" as="sourcePoint" />
            <mxPoint x="440" y="300" as="targetPoint" />
            <Array as="points">
              <mxPoint x="530" y="490" />
            </Array>
          </mxGeometry>
        </mxCell>
        <mxCell id="4nF56dzLipQzrhasN0Lw-18" value="Да" style="edgeLabel;html=1;align=center;verticalAlign=middle;resizable=0;points=[];" vertex="1" connectable="0" parent="4nF56dzLipQzrhasN0Lw-17">
          <mxGeometry x="0.24" y="-4" relative="1" as="geometry">
            <mxPoint as="offset" />
          </mxGeometry>
        </mxCell>
        <mxCell id="4nF56dzLipQzrhasN0Lw-19" value="" style="endArrow=classic;html=1;rounded=0;exitX=0;exitY=0.5;exitDx=0;exitDy=0;exitPerimeter=0;" edge="1" parent="1" source="4nF56dzLipQzrhasN0Lw-15">
          <mxGeometry width="50" height="50" relative="1" as="geometry">
            <mxPoint x="390" y="550" as="sourcePoint" />
            <mxPoint x="370" y="600" as="targetPoint" />
            <Array as="points">
              <mxPoint x="260" y="490" />
              <mxPoint x="260" y="540" />
              <mxPoint x="260" y="580" />
              <mxPoint x="370" y="580" />
            </Array>
          </mxGeometry>
        </mxCell>
        <mxCell id="4nF56dzLipQzrhasN0Lw-22" value="нет" style="edgeLabel;html=1;align=center;verticalAlign=middle;resizable=0;points=[];" vertex="1" connectable="0" parent="4nF56dzLipQzrhasN0Lw-19">
          <mxGeometry x="0.2768" y="2" relative="1" as="geometry">
            <mxPoint as="offset" />
          </mxGeometry>
        </mxCell>
        <mxCell id="4nF56dzLipQzrhasN0Lw-20" value="Исполнение заявки" style="shape=process;whiteSpace=wrap;html=1;backgroundOutline=1;" vertex="1" parent="1">
          <mxGeometry x="310" y="610" width="120" height="60" as="geometry" />
        </mxCell>
        <mxCell id="4nF56dzLipQzrhasN0Lw-21" value="" style="endArrow=classic;html=1;rounded=0;exitX=0.5;exitY=1;exitDx=0;exitDy=0;entryX=0.5;entryY=0;entryDx=0;entryDy=0;" edge="1" parent="1" source="4nF56dzLipQzrhasN0Lw-16" target="4nF56dzLipQzrhasN0Lw-20">
          <mxGeometry width="50" height="50" relative="1" as="geometry">
            <mxPoint x="390" y="550" as="sourcePoint" />
            <mxPoint x="440" y="500" as="targetPoint" />
            <Array as="points">
              <mxPoint x="530" y="590" />
              <mxPoint x="370" y="590" />
            </Array>
          </mxGeometry>
        </mxCell>
        <mxCell id="4nF56dzLipQzrhasN0Lw-23" value="" style="endArrow=classic;html=1;rounded=0;exitX=0.5;exitY=1;exitDx=0;exitDy=0;entryX=0.5;entryY=0;entryDx=0;entryDy=0;entryPerimeter=0;" edge="1" parent="1" source="4nF56dzLipQzrhasN0Lw-8" target="4nF56dzLipQzrhasN0Lw-15">
          <mxGeometry width="50" height="50" relative="1" as="geometry">
            <mxPoint x="390" y="550" as="sourcePoint" />
            <mxPoint x="440" y="500" as="targetPoint" />
          </mxGeometry>
        </mxCell>
        <mxCell id="4nF56dzLipQzrhasN0Lw-28" value="Нужна ли доп. запчасти" style="strokeWidth=2;html=1;shape=mxgraph.flowchart.decision;whiteSpace=wrap;" vertex="1" parent="1">
          <mxGeometry x="320" y="700" width="100" height="100" as="geometry" />
        </mxCell>
        <mxCell id="4nF56dzLipQzrhasN0Lw-29" value="Заказ деталей" style="shape=process;whiteSpace=wrap;html=1;backgroundOutline=1;" vertex="1" parent="1">
          <mxGeometry x="470" y="770" width="120" height="60" as="geometry" />
        </mxCell>
        <mxCell id="4nF56dzLipQzrhasN0Lw-30" value="" style="endArrow=classic;html=1;rounded=0;exitX=1;exitY=0.5;exitDx=0;exitDy=0;exitPerimeter=0;entryX=0.5;entryY=0;entryDx=0;entryDy=0;" edge="1" parent="1" source="4nF56dzLipQzrhasN0Lw-28" target="4nF56dzLipQzrhasN0Lw-29">
          <mxGeometry width="50" height="50" relative="1" as="geometry">
            <mxPoint x="390" y="610" as="sourcePoint" />
            <mxPoint x="440" y="560" as="targetPoint" />
            <Array as="points">
              <mxPoint x="530" y="750" />
            </Array>
          </mxGeometry>
        </mxCell>
        <mxCell id="4nF56dzLipQzrhasN0Lw-31" value="Да" style="edgeLabel;html=1;align=center;verticalAlign=middle;resizable=0;points=[];" vertex="1" connectable="0" parent="4nF56dzLipQzrhasN0Lw-30">
          <mxGeometry x="0.24" y="-4" relative="1" as="geometry">
            <mxPoint as="offset" />
          </mxGeometry>
        </mxCell>
        <mxCell id="4nF56dzLipQzrhasN0Lw-32" value="" style="endArrow=classic;html=1;rounded=0;exitX=0;exitY=0.5;exitDx=0;exitDy=0;exitPerimeter=0;" edge="1" parent="1" source="4nF56dzLipQzrhasN0Lw-28">
          <mxGeometry width="50" height="50" relative="1" as="geometry">
            <mxPoint x="390" y="810" as="sourcePoint" />
            <mxPoint x="370" y="860" as="targetPoint" />
            <Array as="points">
              <mxPoint x="260" y="750" />
              <mxPoint x="260" y="800" />
              <mxPoint x="260" y="840" />
              <mxPoint x="370" y="840" />
            </Array>
          </mxGeometry>
        </mxCell>
        <mxCell id="4nF56dzLipQzrhasN0Lw-33" value="нет" style="edgeLabel;html=1;align=center;verticalAlign=middle;resizable=0;points=[];" vertex="1" connectable="0" parent="4nF56dzLipQzrhasN0Lw-32">
          <mxGeometry x="0.2768" y="2" relative="1" as="geometry">
            <mxPoint as="offset" />
          </mxGeometry>
        </mxCell>
        <mxCell id="4nF56dzLipQzrhasN0Lw-34" value="Отчетность и информирование" style="shape=process;whiteSpace=wrap;html=1;backgroundOutline=1;" vertex="1" parent="1">
          <mxGeometry x="310" y="870" width="120" height="60" as="geometry" />
        </mxCell>
        <mxCell id="4nF56dzLipQzrhasN0Lw-35" value="" style="endArrow=classic;html=1;rounded=0;exitX=0.5;exitY=1;exitDx=0;exitDy=0;entryX=0.5;entryY=0;entryDx=0;entryDy=0;" edge="1" parent="1" source="4nF56dzLipQzrhasN0Lw-29" target="4nF56dzLipQzrhasN0Lw-34">
          <mxGeometry width="50" height="50" relative="1" as="geometry">
            <mxPoint x="390" y="810" as="sourcePoint" />
            <mxPoint x="440" y="760" as="targetPoint" />
            <Array as="points">
              <mxPoint x="530" y="850" />
              <mxPoint x="370" y="850" />
            </Array>
          </mxGeometry>
        </mxCell>
        <mxCell id="4nF56dzLipQzrhasN0Lw-36" value="Отчет о проделанной работе" style="strokeWidth=2;html=1;shape=mxgraph.flowchart.document2;whiteSpace=wrap;size=0.25;" vertex="1" parent="1">
          <mxGeometry x="480" y="870" width="100" height="60" as="geometry" />
        </mxCell>
        <mxCell id="4nF56dzLipQzrhasN0Lw-37" value="" style="endArrow=classic;html=1;rounded=0;exitX=1;exitY=0.5;exitDx=0;exitDy=0;entryX=0;entryY=0.5;entryDx=0;entryDy=0;entryPerimeter=0;" edge="1" parent="1" source="4nF56dzLipQzrhasN0Lw-34" target="4nF56dzLipQzrhasN0Lw-36">
          <mxGeometry width="50" height="50" relative="1" as="geometry">
            <mxPoint x="430" y="940" as="sourcePoint" />
            <mxPoint x="480" y="890" as="targetPoint" />
          </mxGeometry>
        </mxCell>
        <mxCell id="4nF56dzLipQzrhasN0Lw-38" value="" style="endArrow=classic;html=1;rounded=0;entryX=0.5;entryY=0;entryDx=0;entryDy=0;entryPerimeter=0;exitX=0.5;exitY=1;exitDx=0;exitDy=0;" edge="1" parent="1" source="4nF56dzLipQzrhasN0Lw-20" target="4nF56dzLipQzrhasN0Lw-28">
          <mxGeometry width="50" height="50" relative="1" as="geometry">
            <mxPoint x="390" y="650" as="sourcePoint" />
            <mxPoint x="440" y="600" as="targetPoint" />
          </mxGeometry>
        </mxCell>
        <mxCell id="4nF56dzLipQzrhasN0Lw-39" value="Мониторинг и анализ" style="shape=process;whiteSpace=wrap;html=1;backgroundOutline=1;" vertex="1" parent="1">
          <mxGeometry x="310" y="960" width="120" height="60" as="geometry" />
        </mxCell>
        <mxCell id="4nF56dzLipQzrhasN0Lw-42" value="Контроль и анализ" style="strokeWidth=2;html=1;shape=mxgraph.flowchart.document2;whiteSpace=wrap;size=0.25;" vertex="1" parent="1">
          <mxGeometry x="480" y="960" width="100" height="60" as="geometry" />
        </mxCell>
        <mxCell id="4nF56dzLipQzrhasN0Lw-43" value="" style="endArrow=classic;html=1;rounded=0;exitX=1;exitY=0.5;exitDx=0;exitDy=0;entryX=0;entryY=0.5;entryDx=0;entryDy=0;entryPerimeter=0;" edge="1" parent="1" source="4nF56dzLipQzrhasN0Lw-39" target="4nF56dzLipQzrhasN0Lw-42">
          <mxGeometry width="50" height="50" relative="1" as="geometry">
            <mxPoint x="390" y="950" as="sourcePoint" />
            <mxPoint x="440" y="900" as="targetPoint" />
          </mxGeometry>
        </mxCell>
        <mxCell id="4nF56dzLipQzrhasN0Lw-44" value="" style="endArrow=classic;html=1;rounded=0;exitX=0.5;exitY=1;exitDx=0;exitDy=0;entryX=0.5;entryY=0;entryDx=0;entryDy=0;" edge="1" parent="1" source="4nF56dzLipQzrhasN0Lw-34" target="4nF56dzLipQzrhasN0Lw-39">
          <mxGeometry width="50" height="50" relative="1" as="geometry">
            <mxPoint x="350" y="980" as="sourcePoint" />
            <mxPoint x="420" y="950" as="targetPoint" />
          </mxGeometry>
        </mxCell>
        <mxCell id="4nF56dzLipQzrhasN0Lw-45" value="Начало" style="strokeWidth=2;html=1;shape=mxgraph.flowchart.terminator;whiteSpace=wrap;" vertex="1" parent="1">
          <mxGeometry x="320" y="90" width="120" height="60" as="geometry" />
        </mxCell>
        <mxCell id="4nF56dzLipQzrhasN0Lw-46" value="" style="endArrow=classic;html=1;rounded=0;exitX=0.424;exitY=0.977;exitDx=0;exitDy=0;exitPerimeter=0;entryX=0.5;entryY=0;entryDx=0;entryDy=0;" edge="1" parent="1" source="4nF56dzLipQzrhasN0Lw-45" target="4nF56dzLipQzrhasN0Lw-3">
          <mxGeometry width="50" height="50" relative="1" as="geometry">
            <mxPoint x="390" y="250" as="sourcePoint" />
            <mxPoint x="440" y="200" as="targetPoint" />
          </mxGeometry>
        </mxCell>
        <mxCell id="4nF56dzLipQzrhasN0Lw-49" value="Конец" style="strokeWidth=2;html=1;shape=mxgraph.flowchart.terminator;whiteSpace=wrap;" vertex="1" parent="1">
          <mxGeometry x="320" y="1040" width="100" height="60" as="geometry" />
        </mxCell>
        <mxCell id="4nF56dzLipQzrhasN0Lw-50" value="" style="endArrow=classic;html=1;rounded=0;exitX=0.5;exitY=1;exitDx=0;exitDy=0;entryX=0.5;entryY=0;entryDx=0;entryDy=0;entryPerimeter=0;" edge="1" parent="1" source="4nF56dzLipQzrhasN0Lw-39" target="4nF56dzLipQzrhasN0Lw-49">
          <mxGeometry width="50" height="50" relative="1" as="geometry">
            <mxPoint x="390" y="1140" as="sourcePoint" />
            <mxPoint x="440" y="1090" as="targetPoint" />
          </mxGeometry>
        </mxCell>
      </root>
    </mxGraphModel>
  </diagram>
</mxfile>
